<?xml version="1.0" encoding="utf-8"?>
<svg version="1.1" id="Layer_1" xmlns="http://www.w3.org/2000/svg" xmlns:xlink="http://www.w3.org/1999/xlink" x="0px" y="0px"
	 viewBox="0 0 512 512" style="enable-background:new 0 0 512 512;" xml:space="preserve">
<style type="text/css">
	.st0{fill:#898B8D;}
	.st1{fill:#231815;}
	.st2{fill:#58585A;}
	.st3{fill:#565759;}
	.st4{fill:#A5A7AA;}
	.st5{fill:#76777A;}
	.st6{fill:#FFFFFF;}
	.st7{fill:#81C0DA;}
	.st8{fill:#81BFDA;}
	.st9{fill:#7FBCD6;}
</style>
<rect class="st0" width="512" height="512"/>
<path class="st1" d="M417.2,299.5c-1.3-1.7-3.1-0.9-4.7-0.6c-19.8,4.4-39.6,8.8-59.4,13.2c-1.3,0.3-2.7,0.9-4.2,0.3
	c1.3-2.7,3-4.2,5.9-4.5c3.2-0.4,6.4-1.3,9.6-1.9c2.5-0.5,4.1-2.1,4.6-4.6c0.6-2.8-4.7-10.7-7.5-11.3c-0.5-0.1-1-0.1-1.5,0
	c-12,1.9-24.1,3.1-36.2,3.9c-7.1,0.5-14.1,2.9-21.3,0.5c-4.3-1.5-6.7-4.3-6.8-9c0-0.8-0.5-1.6-0.9-2.3c-3.5-5.6-8.4-9.7-14.5-12.3
	c-3.2-1.4-7.2,0.3-9.9,4.3c-1.7,2.5-1.1,5,2,7.5c3.4,2.8,6.2,6.2,9.2,9.4c1.8,1.9,2.8,8.5,1.2,10.6c-2.9,3.8-2.4,7.3-0.3,11.2
	c0.9,1.7,1.6,3.5,2.3,5.4c2.4,6.4,1.7,7.9-5,9.3c-2.5,0.5-3.7,1.7-4.5,4c-1.1,3.3-1.6,6.9-4,9.7c-5.3,6-10.6,12.1-15.9,18.1
	c-0.7,0.7-1.1,2.2-2.5,1.7c-1-0.4-0.7-1.7-0.8-2.6c-2.5-12.8-5.6-25.4-10.7-37.4c-0.9-2.1-2.2-4,0.1-6.2c1.3-1.2,0.1-2.7-0.6-4
	c-6.4-11.6-12.9-23.1-19.1-34.9c-4-7.7-8-15.2-15.6-20.1c-0.2-0.1-0.3-0.4-0.4-0.6c-0.5-0.2-1.3-0.5-1-1c0.4-0.6,1.2-0.2,1.9,0.1
	c4,0.4,7.8,1.4,11.9-1.2c8.9-5.7,18-11.1,27.5-15.7c7.7-3.7,12.4-9.4,15.5-17c0.1-0.2,0.2-0.4,0.3-0.7c6.2-13.6,9.9-27.9,11.8-42.7
	c0.3-2.3,0.9-4.2,3.3-5.6c6-3.5,9.5-8.9,9.6-16.1c0-1-0.1-2.1,0.8-3.1c2.6-2.6,2.5-6.5,0.9-8.7c-2-2.9-3.5-7.4-8.4-6.9
	c-3.2,0.3-3.7-1.1-3.8-4c-0.4-10.8,0-21.6-1.9-32.3c-0.1-0.4-0.2-1.2,0-1.3c3.6-2.5,1.2-5.2,0.1-7.7c-2.5-5.8-2.6-5.8,3.5-6.9
	c1.3-0.2,2.6-0.5,3.9-0.7c3.6-0.7,4.4-2,2.9-5.3c-2.2-5.1-2.2-5.1,2.9-7.4c0.6-0.3,1.2-0.4,1.7-0.7c2-1.2,5.3-1.2,5.5-4.1
	c0.2-3.3-3.4-3.4-5.4-4.6c-3.6-2.2-7.5-4-11.8-6.3c5.2-2.6,9.6-4.9,14.1-7.1c1.4-0.7,3-1.4,2.8-3.4c-0.2-2-1.9-2.3-3.4-2.8
	c-10.4-3.3-20.9-6.6-31.3-9.7c-2.3-0.7-4.4-1.5-6.1-3.2c-6.1-6-13.5-8.7-21.9-9.3c-1.2-0.1-2.4-0.5-3.6-0.6
	c-6.2-0.5-12.3-3.2-18.7-1.7c-15.3,3.5-30.8,5.7-46.6,5.4c-5.7-0.1-10.4-0.7-14.3-5.2c-1.6-1.8-3.6-3.2-5.4-4.9
	c-1-1-2.2-1.6-3.6-1.2c-1.6,0.5-1.6,1.9-1.7,3.3c-0.2,4.3-0.5,8.7-0.8,13.4c-1.6-0.6-2.9-1.1-4.3-1.6c-5.3-2.2-10.5-4.5-15.8-6.7
	c-1.5-0.6-3.1-1.2-4.3,0.4c-1.2,1.6-0.3,3,0.8,4.2c1.7,1.9,3.2,4,5,5.8c1.5,1.6,1.2,2.4-0.8,2.8c-3.3,0.8-6.6,1.7-9.9,2.4
	c-3.3,0.7-3.6,2.6-2.3,5.1c1.3,2.5,2.8,4.8,4.4,7.2c1,1.5,1.1,2.7,0.2,4.3c-2.7,4.9-5.2,9.9-7.9,14.8c-0.9,1.8-1.6,3.5-1.2,5.6
	c1.2,6.7,1.8,13.5,3.4,20.1c2.3,9.9,2,19.3-2.2,28.7c-1.8,4-2.7,8.3-4.2,12.4c-1,2.8-1.3,5.6-0.8,8.6c1,5.9,2,11.7,2.8,17.6
	c0.3,2.4,1.4,4,3.4,5.3c4.3,2.7,8.6,5.5,12.9,8.3c1,0.6,2.4,1.2,2,2.7c-1.9,7.2,0.1,14.3-0.1,21.5c-0.1,5.7-1.3,11.3-2,17
	c-0.2,2-1,2.5-3.2,2.8c-3.5,0.6-7.3,1.5-9.1,5.6c-1,2.2-1.4,5-4.2,6.1c-14.8,6.2-29.5,12.5-44.3,18.6c-2.7,1.1-4.4,2.5-5.4,5.3
	c-3.9,11.1-8.1,22.1-12.1,33.2c-1.5,4.1-3.5,8-4.1,12.4c-2.2,17.6-4.3,35.2-6.5,52.8c-0.8,6.1,0.3,7.3,6.1,5.5
	c3.5-1.1,4.4,0,4.6,3.3c1.7,25.1,3.6,50.2,4.5,75.3c0.1,2-0.2,3.8-0.7,5.8c-3,11.1-5.9,22.3-9.1,33.4c-0.8,2.8-0.1,4.3,2.5,5.5
	c2.5,1.2,4.9,2.7,7.4,3.9c1.7,0.8,2.5,1.9,1.9,3.7c-1.9,6.6-0.7,12.7,2.4,18.6c0.5,0.9,1,2,0.8,3.1c0.4,0.2,0.7,0.6,0.6,1.1
	c1.9,0,3.9,0,5.8,0c-1.2-3.1-2.1-6.2-3.6-9.1c-2.2-4.3-1.9-8.6-0.5-13.4c6,3.2,11.8,6.3,17.7,9.4c1.9,1,3.7,1.5,5.9,1.4
	c35.4-2.7,70.7-5.2,106.1-8.1c8.1-0.6,16.2-2,24.2-3.3c6.6-1.1,11.2,1.8,15.1,6.5c2.4,2.9,4.3,6.2,6.6,9.2c1.7,2.3,2.5,4.7,1.7,7.5
	c5.6,0,11.2,0,16.8,0c-0.9-2.3-3.3-1.7-5-2.2c-3.2-1-5.9-1.9-7.7-5.5c-2.4-5-6.3-9.2-9.4-13.9c-1.1-1.7-3.1-2.3-4.8-3.7
	c1.4-0.5,2.4-0.1,3.5,0.1c6.6,1.7,13.2,3.3,19.8,5c2.5,0.7,4.7,0.4,7-0.8c14.1-7.1,28.2-14.1,42.4-21.2c1.7-0.9,3.2-1.3,5.1-0.3
	c6.4,3.3,12.8,6.4,19.3,9.5c1.4,0.7,2.5,1.5,2.6,3.2c0.6,9.9,2.2,19.8,2.4,29.8c1.9,0,3.9,0,5.8,0c0-0.3-0.1-0.6-0.1-0.8
	c-1.5-9.4-2.1-18.8-2.8-28.3c-0.3-4.4-1.7-7.1-5.9-8.8c-5.8-2.4-11.4-5.5-17.5-8.5c1.5-0.8,2.5-1.3,3.4-1.8
	c18.3-9.1,36.5-18.3,54.8-27.4c3.2-1.6,5.5-3.6,5.3-7.5c-0.1-1.3,0.8-1.7,1.7-2.5c3.5-3.3,8-5.8,9.9-10.5
	c14.5-37.2,29-74.5,43.5-111.8C417.4,302.5,418.3,301,417.2,299.5z M275.9,144.8c0-1.7,3.1-3,4.4-1.5c1.4,1.5,2.9,3.4,1.7,5.9
	c-1.2,2.6-0.6,5.5-0.9,8.2c-0.4,4.1-2.4,6.9-6.3,10.1C275.6,159.3,275.8,152.1,275.9,144.8z M362.2,296.4c-1.9,0.3-2.9-0.1-5.2,0.1
	c-1.6-1.6-2.5-1.5-2.5-1.5C356.4,294,361.8,294,362.2,296.4z M356.1,301.6c1.9-1,9.4-2.9,8,0.6c-1.9,0.3-7.6,1.5-9.5,1.8
	C354.6,303.7,356,301.9,356.1,301.6z M351.2,298.9c1.3,0.8-0.1,1.7-0.6,2.4c-2.4,3.5-4.3,7.5-8,9.9c-1,0.6-1.6,1.9-3.1,1.2
	c3.6-3.7,6.4-8,9.6-12C349.6,299.6,350.1,298.1,351.2,298.9z M329.5,298.6c0.5,0,2.6-0.3,5.2-0.7c0.3,0,0.6-0.1,0.9-0.1
	c4.2-0.6,9.2-1.3,10-1.4c-0.1,0.3-1.8,1.9-1.8,2.2c-2.6,0.2-15.9,0.6-16.5,4.5C325.4,298.8,325.4,298.8,329.5,298.6z M331.3,315.9
	c-0.1,0-0.2,0-0.4,0.1c-0.1,0-0.2,0-0.3,0c0,0-0.1,0-0.1,0c-0.2,0-0.2,0,0,0c0,0,0.1,0,0.1,0c0.1,0,0.2,0,0.3,0
	c0.1-0.3-0.6-2.4-0.5-2.7c3-0.4,4.8-1.7,0.5,2.7C331,316,331.2,316,331.3,315.9C331.5,315.9,331.5,315.9,331.3,315.9z M330.1,308.3
	c0.1-0.3-0.6-2.4-0.5-2.7c3-0.4,13.8-4.2,7.8,1.5C335.5,307.4,332.1,308,330.1,308.3z M285,287.8c-3.1-3.4-6-7-9.7-9.7
	c1.4-2.6,2.9-2.9,5.3-1.4c2.9,1.8,5.8,3.4,7.8,6.4c0.8,1.3,1.9,2.2,0.8,3.9c-0.2,0.4-0.3,1.1-0.1,1.4c3,3.8,5,8.6,10.1,10.5
	c6.1,2.3,12.4,2.2,18.6,1c2-0.4,3-0.3,3.5,2.1c0.5,2.2,1.6,4.2,3.1,6.1c2.2,2.9,0.2,6.6,1.2,9.8c0.2,0.5-2.2,0.9-3.5,1.1
	c0-4.2-4.8-7.8-9.5-7.1c-5.7,0.7-11,2.1-12.9,8.6c-0.3,1-1.1,1.9-1.6,2.8c-1.2,2.2-3.6,2-5.5,2.1c-1.3,0-1.2-2.1-1.4-3.3
	c-0.8-4.2-2.7-8-4.4-11.9c-0.7-1.6-0.6-2.8,0.3-4.4C290.1,300.4,289.2,292.3,285,287.8z M319.1,319.7c-5,1.1-9.6,2.1-14.5,3.2
	C307,316.5,311.6,315.5,319.1,319.7z M245.7,353.8c0.6,2.7,0.9,5.5,1.6,8.2c1.1,4,1.1,7.6-2.6,10.4c-0.6,0.5-1,1.4-1.1,2.2
	c-0.8,4.8-1.5,9.6-2.2,14.4c-0.2,1.6,0.2,3,2,3.3c1.9,0.3,2.9-0.8,3.1-2.7c0-0.5,0.1-1,0.1-1.5c0.2-8.7,3.6-15.7,10.1-21.7
	c3.9-3.6,7.1-7.9,10.6-11.9c0.2,0.1,0.4,0.2,0.6,0.3c-1.4,4.3-2.9,8.7-4.3,13c-2.5,7.6-5.1,15.2-7.6,22.8c-0.5,1.7-1.2,2.6-3,1.9
	c-0.5-0.2-1.6-0.6-1.6,0c0,4.2-3.6,3.1-5.7,3.9c-4.5,1.8-9.2,3-13.8,4.5c-1.7,0.6-2.5,0.3-3.3-1.4c-4.2-9-8.4-18-12.1-27.2
	c-0.4-0.9-0.8-1.8-0.4-2.8c4-10.4,2.1-20.8,0.5-31.2c-0.4-2.8,0.4-4.1,2.7-5.5c5.6-3.3,11.3-6.5,16.7-10.7
	C240.6,332.5,243.4,343.1,245.7,353.8z M219.7,446.6c6.3,2.2,12.5,4.6,18.9,6.6c2.6,0.8,4.7,2.5,7.2,3.5c0.9,0.4,1.9,1.1,1.4,2.2
	c-0.6,1.1-1.8,0.5-2.6,0.1c-8.4-3.1-16.8-6.3-25.2-9.5c-0.6-0.2-1.1-0.5-1.7-0.7c-1.5-0.7-2.9-0.8-3.8,0.7c-1,1.7-0.3,3,1.3,3.9
	c3.8,2.2,7.3,4.7,11.5,6.2c3.3,1.2,6.5,2.6,9.8,3.9c1.1,0.4,2.6,0.8,2.1,2.4c-0.5,1.4-2,0.7-2.9,0.5c-5.2-1.4-10.1-3.5-14.9-5.9
	c-3.7-1.9-7.4-3.7-11.1-5.6c-1.6-0.8-3.3-1.5-4.5,0.4c-1.1,1.9,0.2,3.1,1.6,4.2c4.5,3.7,9.6,6.4,15,9.1c-1.4,1.5-2.5,0.5-3.3,0
	c-9.6-5.9-20.2-9.3-30.5-13.6c-4.9-2-8.9-5-11.9-9.3c-1.8-2.6-4.3-3.6-7.4-4.1c-19.7-3.5-39.6-6.2-59.1-11
	c-17.6-4.3-34.7-9.9-51.5-16.7c-3.6-1.5-5.4-3.6-6.2-7.5c-3.1-15.3-6.3-30.7-9-46.1c-0.7-3.7,0-5.4,4-6.7c9.4-2.9,18.4-6.9,28.3-8
	c1.3-0.1,2.7-0.4,4-0.3c2.2,0.2,3.6,0.9,3.5,3.8c-0.5,12.8,1.5,25.4,4.1,38c0.6,2.8,2.1,4.3,4.5,5.7c14.5,8.5,30.2,13.7,46.4,17.8
	c12.9,3.3,25.4,8.1,38.5,10.8c3.4,0.7,5.7-0.1,7.7-2.6c1.7-2.1,3.8-3.3,6.4-3.8c2.7-0.5,5-1.8,7.5-2.7c5.3-1.9,10.9-2.8,16.6-1.9
	c2.1,0.3,4,0.3,6.6,0.1c-1.2,3.4-3.7,4-6.1,3.5c-3.4-0.6-6.2,1-9.2,1.6c-2.8,0.6-3.7,4.8-1.7,7.2c3.1,3.8,7.1,6.5,11.6,8.6
	c8.6,4,17.4,7.6,25.2,12.9c1.9,1.3,4,2.3,5.2,4.6c-2,0.4-3.5-0.5-5-1.1c-5.8-2.2-11.6-4.3-17.6-5.9c-0.8-0.2-1.6-0.4-2.5-0.6
	c-1.6-0.4-3-0.3-3.6,1.5C216.8,445,218,446,219.7,446.6z M130.8,443.9c0.6,1.1,1.7,1,2.6,0.7c9.3-3.3,18.2,0,27.3,1
	c3.5,0.4,6.5,0.8,6.8,5.5c0.1,2.2,2.7,3.2,4.9,3.8c11.7,3.4,22.5,9,33.8,13.3c0.8,0.3,1.9,0.5,2.6,2.1c-3.5-0.9-6.6-1.6-9.6-2.4
	c-26.7-6.8-53.4-13.6-80.1-20.4c-1.3-0.3-3.1-0.3-3.3-2.3c-0.2-2.3,1.8-2.3,3.2-2.8c4.1-1.3,8.2-3.4,13-1.5
	C131.8,442.2,130.1,442.6,130.8,443.9z M220.1,401.7c0.5-1.1,1.1-2.1,1.9-3.4c3.3,5.7,3.2,5.8-3.1,6.6
	C218.5,403.5,219.6,402.7,220.1,401.7z M240.8,436.1c-0.4,1.2-1.1,1.5-2.2,0.9c-4.5-2.3-8.9-4.7-13.7-7.2c6.6-2.8,13.1-4.8,20.5-7.2
	C243.6,427.6,242.2,431.8,240.8,436.1z M244.8,416.9c-8.5,2.9-17,5.8-25.5,8.7c-2.4,0.8-8.2-1.8-9.3-4.1c-0.7-1.6,0.6-1.5,1.4-1.8
	c2.2-0.9,4.5,0.2,6.8-0.4c5.3-1.5,7.3-3.5,7.9-8.9c0.1-1.2,0.4-1.9,1.7-2.3c8-2.5,16-5.1,24.9-7.9c-1.8,5.5-3.3,10.1-4.9,14.6
	C247.4,416.2,246.1,416.5,244.8,416.9z M217.3,327.9C217.4,327.9,217.4,327.9,217.3,327.9c-0.1-6.6,1.2-13,2.1-19.5
	c0.1-0.9,0.2-1.9,0.3-2.8c0.5-5.5,1.4-10.9,2.3-17.4c3.9,7,7.3,13.3,10.7,19.5c3.7,6.7,3.7,8-2.7,12.5
	C226.1,323.1,221.9,325.8,217.3,327.9C217.4,327.9,217.4,327.9,217.3,327.9L217.3,327.9c0,0.1-0.1,0.1-0.2,0.1
	C217.2,328,217.3,327.9,217.3,327.9z M269.6,167.9c-0.1,1.2-0.1,2.5-1.7,2.9c-8.8,2.6-20.9-0.2-25-9.6c-1.4-3.1-0.8-6.2-0.7-9.3
	c0-1.1,0.3-2.2,0.4-3.2c0.7-6.6,0.7-6.6,7.2-6.6c2.4,0,4.9,0,7.3,0c0,0.1,0,0.2,0,0.4c3.8,0,7.5,0.1,11.3,0c1.7-0.1,2.3,0.5,2.3,2.2
	C270.8,152.4,270.2,160.1,269.6,167.9z M267.8,137.3c-7.5-0.1-15.1-0.2-22.6-0.4c-1.9,0-3.9-0.1-5,1.5c-1.4,2-2.5,1.6-4.3,0.6
	c-5.6-3.1-11.5-3.6-17.6-1.5c-2.1,0.7-2.7,0.4-2.6-1.9c0-3.6-2.2-5.9-5.8-6.1c-13.2-0.7-26.4-1.6-39.7-1.8c-2.7,0-4.4,1.1-5.7,3.2
	c-1.3,2.3-2.9,2.8-5.6,2.6c-4.9-0.4-9.6-1.6-14.3-2.7c-2.2-0.5-3.1-1.2-2.4-3.6c1.1-3.9,1.8-7.9,2.9-12.9c2.3,4.5,4.1,8.2,6,11.8
	c0.8,1.4,1.3,3.4,3.5,3.1c2-0.2,2.3-2,2.8-3.4c3.9-10.6,7.9-21.1,11.7-31.7c0.8-2.1,1.8-3,4-3.3c8.2-1.1,16.3-2.4,24.5-3.6
	c1.7-0.3,3.3-0.1,4.9,0.7c14.3,7.8,29.5,13.5,44.8,18.9c1.7,0.6,3.5,1.7,5-0.1c1.6-2-0.2-3.4-1.2-4.8c-2.3-3.2-4.7-6.4-7.8-10.4
	c8,2.2,15.2,3.7,21.9,6.2c2.8,1,4,4.8,4.2,8c0.7,9.8,1.2,19.6,1.2,29.5C270.8,137.7,269.3,137.3,267.8,137.3z M199.2,156.4
	c-0.3-1.1-0.6-2.1-1.9-2.4c-1.4-0.3-2.3,0.5-2.9,1.7c-1.5,2.7-2.1,5.5-1.1,8.4c0.6,1.7,0,2.1-1.5,2.2c-7.4,0.4-17.9-2.9-22.7-11.2
	c-2.1-3.7-1.3-7.5-1.3-11.4c0-1.6,0.6-3.5-1.2-4.6c-0.3-0.2-0.4-0.5-0.6-0.7c2.6-0.8,1.9-3.8,3.4-5.2c1-0.9,2.6-0.4,3.9-0.3
	c9.6,0.4,19.1,0.8,28.7,1.4c8.8,0.5,8.8,0.7,9,9.4c0,1.3,0,2.7,0,4c0,9.1-3.5,14-12.2,17.2c-0.3,0.2-0.7,0.3-0.9-0.1
	c0,0,0.3-0.3,0.5-0.4C199,161.7,199.9,159.2,199.2,156.4z M108.9,90.4c-0.9-5.1-1.6-10.3-2.5-15.5c-0.4-2.1,0-4,1-5.9
	c2.5-4.5,4.6-9.1,7.2-13.5c2-3.3,2-6-0.2-9.3c-3.4-5-3.2-5.2,2.7-6.6c2-0.5,4-1,6-1.5c4.9-1.2,5.2-2.1,2.7-6.4
	c-0.1-0.2-0.4-0.5-0.3-0.6c0.2-0.5,0.6-0.3,0.9,0c0,0,0,0,0,0c3.4,0.6,6.4,2.3,9.5,3.6c0.4,0.2,0.9,0.4,1.4,0.5
	c3.6,1.2,4.7,0.6,4.9-3.2c0.2-2.9,0.4-5.8,0.5-8.7c0.1-1.9,0.8-2.1,2.2-1c0.3,0.2,0.6,0.4,0.8,0.7c4.4,6.2,10.7,6.2,17.5,6.1
	c16-0.1,31.7-2,47.3-5.6c5.1-1.2,10.1,0.9,15.1,1.5c3.6,0.4,7.2,1.5,10.8,1.8c4,0.3,7.2,1.8,10.1,4.4c4.6,4.2,10,6.7,16,8.3
	c7.2,1.9,14.3,4.4,22.2,6.8c-4.6,2.4-8.6,4.4-12.6,6.4c-1.4,0.7-3,1.2-3.1,3.2c-0.1,2,1.6,2.6,2.9,3.3c4.4,2.3,8.8,4.6,13.9,7.3
	c-2.5,1.3-4.4,2.3-6.3,3.2c-4.2,2-4.8,3-2.5,6.9c1.6,2.7,1,3.5-1.9,3.8c-2.2,0.2-4.3,0.7-6.5,1.1c-3.3,0.7-3.9,1.9-2.8,5.2
	c0.6,1.7,2.7,3.5,1.4,4.9c-1.4,1.5-3.7-0.2-5.4-0.7c-7.5-2-15-4.1-22.5-6.2c-1.7-0.5-3.6-1.6-4.9,0.6c-1.1,2,0.3,3.4,1.4,4.9
	c1.9,2.5,3.8,5,5.8,7.7c-1.7,0.9-2.8-0.1-4-0.5c-11-3.6-21.4-8.6-31.6-14c-3-1.6-6-2.3-9.4-1.7c-8.9,1.5-17.7,2.9-26.6,4
	c-2.9,0.4-4.2,1.7-5.1,4.3c-3.4,9.6-7,19.1-11,29.7c-2.2-4.2-3.9-7.6-5.6-11c-0.6-1.1-1.1-2.2-1.7-3.2c-0.7-1.2-1.7-2.2-3.2-1.9
	c-1.4,0.3-1.9,1.4-2.1,2.7c-1.2,5.8-2.5,11.6-3.6,17.5c-0.5,2.6-1.2,3-4.1,2.5c-9.3-1.9-18.7-2.5-27.4,2.8c-1.1-1.6,0-2.9,0.4-4.2
	C112.1,107.9,112.1,107.9,108.9,90.4z M104,155c0-4.1-1.2-8.2-1.8-12.2c-0.4-2.2-0.6-4.3,0.8-6.5c2.5,2.6,4.3,1.9,5.9-1.1
	c0.8-1.5,2-2.8,3.8-3.2c0.2-0.2,0.5-0.4,0.7-0.1c0.1,0.1-0.2,0.3-0.3,0.5c0,0,0,0,0,0c-4.8,9.9-5.5,19.8-0.8,30.1
	c0.7,1.5,1.5,2.9,2.4,4.4C108.9,163.9,104.1,161.9,104,155z M115.9,139.6c2-5.9,5-10,13.1-7.6c5.6,1.6,11.3,2.6,15.9,6.7
	c1.4,1.3,3.1,1.6,4.4-0.2c0.8-1.2,1.6-0.7,2.5-0.6c1.7,0.3,3.4,0.5,5.1,0.6c2,0,2.7,0.3,3.9,2.7c1.9,3.9,1.2,7.7,1.9,11.4
	c0.9,4.3,3.1,7.9,6.3,10.9c9,8.4,23.7,10.6,34.7,5.1c8-4,12.6-10.4,12.3-19.8c-0.2-4.9,0.6-5.8,5.4-6.8c3.5-0.8,7-0.5,10.3,0.9
	c4.8,2.1,5.8,3.8,5.3,9c-0.4,4.7-0.1,9.2,1.6,13.6c1.8,4.6,1.9,9.5,1.1,14.4c-1.4,8.1-7.6,12.6-15.8,11.3c-1.1-0.2-2.2-0.3-3.2-0.5
	c-1.7-0.3-3,0.1-3.4,1.8c-0.4,1.8,0.7,2.8,2.3,3.2c11.7,3,22.8-1.1,25.3-15.2c0.4-2.4,0.4-4.8,0.7-7.7c5.5,3,11.2,4.6,17.4,4.3
	c1.8-0.1,4.1-1.8,5.2,0.1c0.7,1.2-0.2,3.5-0.5,5.3c-2.5,15.5-6.8,30.3-14.6,44c-1.1,2-2.5,3.4-4.5,4.6
	c-10.9,6.1-21.8,12.3-32.6,18.6c-1.9,1.1-3.7,1.5-5.8,1.1c-16-2.9-32-5.8-48.1-8.5c-1.8-0.3-3-1.2-4.3-2.4
	c-15.2-14-24.3-32.3-35.2-49.4c-0.6-1-0.8-1.9-0.6-3.1c0.5-3.1,0.8-6.3,1.2-10c0.9,0.5,1.4,0.7,1.9,1c8,4.4,15.5,0.6,17-8.5
	c0.3-1.6,0.1-3-1.7-3.5c-1.7-0.5-2.8,0.5-3.3,2.1c-3,10-8.2,7.5-13.2,2.1C115.8,161.5,111.8,151.5,115.9,139.6z M116.6,235.8
	c3.4-11.1,5-22.5,6.3-34.2c1.5,0.6,1.8,1.8,2.3,2.8c8.2,14.2,17.3,27.8,29.2,39.3c1.8,1.8,3.7,2.9,6.2,3.3c7,1,13.9,2.4,20.8,3.6
	c2,0.3,3,0.9,3,3.2c-0.2,7.2-0.3,14.3-0.5,21.5c0,0.6-0.2,1.2-0.4,1.8c-3.4,7.4-6.8,14.7-10.3,22.4c-13.6-9.1-26.8-18-40.1-26.8
	c-1.2-0.8-1.9-1.8-2.4-3c-4.5-10.1-9-20.1-13.5-30.2C116.9,238.1,116.2,237.1,116.6,235.8z M79.3,244.5c6.4-2.7,12.8-5.4,19.1-8.1
	c3.4-1.5,7.3-2.2,8.6-7.6c4,9,7.6,16.8,11.1,24.6c2.8,6.2,5.6,12.4,8.3,18.6c0.9,2.1,2.2,3.6,4.2,4.9c13.5,8.9,26.9,18,40.3,26.9
	c4.1,2.7,5.1,2.4,7.1-1.9c1.9-4.1,3.4-8.4,5.7-12.2c5.6-9.3,6.3-19.4,6.1-29.8c0-1.3,0.1-2.7,0.2-4c0.3-2.6,2.1-3.7,4.1-2.2
	c5.8,4.6,11.5,9.4,17.1,14.3c1,0.9,1.1,2.7,1.8,3.9c4.4,8.1,4.4,16.5,2.9,25.4c-2,11.9-3.6,23.8-4.7,35.8
	c-0.6,6.9,1.7,13.7,2.1,20.6c0.4,5.8-0.3,11.2-4.7,15.8c-4.8,4.9-9,10.2-12.8,15.9c-2.1,3-1.6,4.1,2.1,4.2c1.9,0.1,3.9-0.2,5.8-0.4
	c1.1-0.1,2-0.7,1.9-1.8c-0.1-1.3-1.3-1.1-2.3-1.1c-1.3,0-2.6,0.8-4.2-0.2c3.1-4.4,6.3-8.6,10-12.4c0.2-0.1,0.5-0.3,0.7-0.4
	c0,0.3-0.1,0.6-0.1,1c0,0,0,0,0,0c-0.9,2.8-0.8,5.4,0.1,8c0.3,0.9,0.7,1.7,1.1,2.6c1.4,2.7,2.1,5.8,3.7,8.3c2.5,4,1.2,7.2-1.3,10.2
	c-2,2.3-5.3,2.6-8,2.5c-7.4-0.3-13.2,4.5-20.1,5.8c-1.2,0.2-2.6,1.2-3.3,2.2c-2.2,3.4-5.1,2.9-8.2,1.9
	c-21.2-6.1-42.8-11.2-63.4-19.2c-4.5-1.7-8.8-4.2-13.1-6.3c-0.2-0.1-0.4-0.2-0.6-0.2c-0.6-0.2-1.2-0.5-1.1-1.4
	c-2.2,0.4-3.2-1-3.6-2.8c-2.3-10.6-3.9-21.3-4.1-32.1c0-2.6,0.2-3.6,3.1-2.1c5.4,2.7,6.6,1.8,7.5-4.1c2.9-20.3,5.8-40.6,8.8-61
	c0.3-2-0.2-3.8-0.7-5.7c-3.2-12.6-10.1-22.3-21.9-28.3c-3-1.5-5.6-3.9-8.4-5.8C76.9,244.9,78.2,244.9,79.3,244.5z M39.9,350.8
	c-1.4,0.5-2.8,0.7-4.2,1.3c-2.7,1.2-3.4,0.4-3.1-2.4c1.1-8.7,2.2-17.4,3.2-26c0.6-4.7,1.4-9.4,1.7-14.1c0.6-6.8,2-13.4,4.5-19.8
	c4.2-10.9,8.2-21.8,12.1-32.8c0.7-2,1.8-3,3.7-3.5c2.3-0.6,4.8-1.2,6.9-2.3c4.3-2.2,7.8-1.5,11.5,1.6c5,4.1,10.4,7.6,15.8,11.2
	c2.4,1.6,3.5,3.7,4.8,6.1c5.1,9.6,5.3,19.4,3.3,29.9c-2.7,14.1-4.2,28.4-6.3,42.5c-0.2,1.3-0.5,2.6-0.8,4.1
	c-0.8-0.4-1.6-0.6-2.1-1.1c-7.6-6.4-16-5.6-24.8-3.4C57.1,344.4,48.6,348,39.9,350.8z M158.8,488.5c-24.9,1.7-49.7,3.7-74.5,5.5
	c-3.6,0.3-7.3,0.6-10.9,0.9c-1.3,0.1-2.4-0.1-3.5-0.7c-10.1-5.4-20.1-10.8-30.2-16.1c-1.2-0.6-2.2-1.2-1.7-3
	c2.8-9.9,5.4-19.9,8.2-29.9c0.1-0.3,0.4-0.6,0.7-0.9c4.7,6,9.4,11.9,14.1,17.7c0.5,0.7,1.1,1.3,1.6,1.9c0.6,0.6,1.4,0.7,2,0.3
	c0.6-0.5,0.7-1.3,0.3-2c-0.4-0.7-1-1.4-1.5-2c-4.4-5.5-8.6-11.2-13.1-16.6c-2-2.5-2.9-5.1-3-8.3c-0.2-8.6-0.3-17.2-1.4-25.8
	c-0.1-0.6,0.1-1.2,0.2-1.8c1.5-0.2,1.3,1,1.4,1.7c0.4,4.7,3.3,6.9,7.3,8.6c18.6,8,37.8,13.8,57.5,18.6c1.1,0.3,2.2,0.6,3.9,1
	c-6.4,2.4-6.6,7.3-5.8,12.3c0.8,5.1,2.6,9.4,8.6,10.9c27.7,6.9,55.3,14,83,21.1c1.2,0.3,2.3,0.6,4.2,1.2
	C189.8,485.6,174.3,487.4,158.8,488.5z M304.5,456.2c-19.6,9.8-39.2,19.6-58.7,29.4c-1.8,0.9-3.4,1.3-5.5,0.8
	c-40-10.3-80-20.4-120-30.6c-1.5-0.4-3.1-0.6-3.5-3.2c6.7,1.7,13,3.2,19.3,4.8c32.1,8.2,64.3,16.1,96.3,24.8
	c7.8,2.2,13.9,1.1,20.7-2.4c18.2-9.2,36.7-18,55-26.9c1-0.5,2.1-1.3,4.1-0.6C309.2,453.9,306.9,455.1,304.5,456.2z M340.7,438.4
	c-2.1,1.3-4.5,2.1-6.7,3.2c-6.3,3.2-12.8,6.2-19.5,9.4c0.5-1.8,1.7-1.9,2.6-2.3c7.4-3.7,14.8-7.3,22.2-11c0.4-0.2,0.8-0.4,1.2-0.6
	c6.6-3.3,10-5.2,11.2-5.1C351.8,432.8,345.8,435.9,340.7,438.4z M409.1,309.1c-12.6,32.4-25.5,64.7-37.6,97.2
	c-3.3,8.8-8.7,14.2-16.9,18.1c-32.4,15.5-64.5,31.4-96.8,47.1c-4.2,2-8.3,4-12.5,5.9c-1.3,0.6-2.7,1-3.8,1.4c-3-0.3-5.1-1.5-6.2-3.8
	c-0.7-1.5-1.5-3.3,1.8-3.1c3.3,0.2,5.9-1.4,6.8-4.9c0.4-1.5,0.7-2.3,2.7-2.4c4.7-0.2,7.2-4.7,5.3-9.4c-0.6-1.4-0.7-2.6-0.5-4.1
	c0.6-3.6-0.8-6.5-3.8-8.4c-2.2-1.3-2.5-2.7-1.7-5.1c11.3-33.7,22.5-67.3,33.7-101c0.7-2.2,1.9-3.3,4.2-3.8
	c40.8-9,81.6-18.1,122.3-27.1c1.1-0.3,2.4-1.2,3.4-0.1C410.6,306.8,409.5,308,409.1,309.1z"/>
<path class="st1" d="M95.9,386c-0.4,0.6-0.3,1.6-0.4,2.4c1.6,0.3,2.7-0.2,3.6-1.6c1.5-2.2,2.9-4.5,4-6.9c4.2-9.5,4.7-20,7.6-29.9
	c0.3-0.9,0-1.9-0.9-2.2c-1.1-0.3-1.8,0.5-2,1.5c-0.7,2.9-1.5,5.9-2.1,8.8C103.6,367.9,102.4,377.9,95.9,386z"/>
<path class="st1" d="M138.7,159c0.3-1.5-0.2-2.5-1.5-3.3c-6-3.7-8-8.3-6.5-15.1c0.3-1.3,0.1-2.5-1.1-3.1c-1.3-0.6-2.6-0.3-3.5,1
	c-1.1,1.7-1.6,3.5-1.6,5.5c0,5.6,3,9.8,6.5,13.8c0.5,0.6,1.9,1.1,1,2.3c-0.9,1.1-2.1,1.1-3.3,0.5c-1.4-0.7-2.4-2-3.3-3.3
	c-0.9-1.3-2.1-1.6-3.5-0.9c-1.4,0.8-1.5,2.1-1,3.5c1.2,3.2,5.7,6.4,9.1,6.4C133.7,166.2,137.9,162.6,138.7,159z"/>
<path class="st1" d="M193.5,229.9c1.5,0,2.7-0.5,2.9-2.1c0.2-1.5-0.4-2.5-1.9-3c-7-2.4-7-2.5-6.7-9.9c0.1-1.6-0.6-2.8-1.9-3
	c-1.5-0.2-2.5,0.3-3.1,1.9C179.9,221.1,185.6,229.8,193.5,229.9z"/>
<path class="st1" d="M201.7,103c-3.9,3.5-7.9,6.8-12.7,9c-5.1,2.4-10,2.8-14.5-1.3c-1.4-1.2-2.9-1.5-4.1,0.1
	c-1.2,1.6-0.4,2.9,0.9,4.1c3,2.7,6.6,4,11,4.1c0.7-0.1,1.8-0.2,2.8-0.4c8.1-1.5,14.2-6.5,20.1-11.8c1.5-1.4,3.2-2.8,1.4-4.8
	C204.8,100,203.1,101.7,201.7,103z"/>
<path class="st1" d="M263.6,120.6c-5.1-0.3-9.5-2.1-12.5-6.4c-1.1-1.6-2.3-3.2-4.3-1.7c-2,1.5-1,3.2,0.1,4.8
	c4.1,5.6,9.8,8.1,16.5,8.5c1.9-0.1,4.4,0.5,4.6-2.3C268.2,120.4,265.6,120.7,263.6,120.6z"/>
<path class="st1" d="M263.7,157.1c-2.5-0.5-3.3,1.8-3.8,3.6c-0.8,2.6-1.4,5.5,0.6,8c0.6,0.7,1.4,0.9,2.3,0.4
	c2.6-1.8,2.8-4.6,3.2-7.4C265.5,159.9,266,157.5,263.7,157.1z"/>
<path class="st2" d="M406.1,305.8c-40.8,9-81.5,18.1-122.3,27.1c-2.3,0.5-3.5,1.6-4.2,3.8c-11.2,33.7-22.4,67.4-33.7,101
	c-0.8,2.4-0.4,3.8,1.7,5.1c3.1,1.9,4.4,4.9,3.8,8.4c-0.2,1.5-0.1,2.7,0.5,4.1c1.8,4.7-0.6,9.2-5.3,9.4c-2,0.1-2.3,0.9-2.7,2.4
	c-1,3.4-3.5,5.1-6.8,4.9c-3.3-0.2-2.5,1.6-1.8,3.1c1.2,2.3,3.3,3.5,6.2,3.8c1.1-0.4,2.5-0.8,3.8-1.4c4.2-1.9,8.4-3.9,12.5-5.9
	c32.2-15.7,64.4-31.6,96.8-47.1c8.3-4,13.6-9.3,16.9-18.1c12.2-32.5,25.1-64.8,37.6-97.2c0.4-1,1.5-2.3,0.5-3.4
	C408.6,304.6,407.3,305.6,406.1,305.8z"/>
<path class="st3" d="M119,442.5c-1.4,0.5-3.4,0.5-3.2,2.8c0.2,2,1.9,1.9,3.3,2.3c26.7,6.8,53.4,13.6,80.1,20.4
	c3.1,0.8,6.2,1.5,9.6,2.4c-0.7-1.5-1.8-1.8-2.6-2.1c-11.3-4.4-22.1-10-33.8-13.3c-2.2-0.6-4.8-1.6-4.9-3.8c-0.3-4.7-3.3-5.1-6.8-5.5
	c-9.1-1.1-18.1-4.4-27.3-1c-0.9,0.3-2,0.4-2.6-0.7c-0.7-1.3,1.1-1.7,1.2-2.9C127.2,439.1,123.1,441.1,119,442.5z"/>
<path class="st3" d="M247.9,414.7c1.5-4.6,3-9.1,4.9-14.6c-9,2.9-17,5.5-24.9,7.9c-1.3,0.4-1.6,1.1-1.7,2.3
	c-0.6,5.4-2.6,7.4-7.9,8.9c-2.3,0.7-4.6-0.5-6.8,0.4c-0.8,0.3-2.2,0.2-1.4,1.8c1.1,2.3,6.9,4.9,9.3,4.1c8.5-2.9,17-5.8,25.5-8.7
	C246.1,416.5,247.4,416.2,247.9,414.7z"/>
<path class="st3" d="M308.1,452.9c-18.4,8.9-36.8,17.7-55,26.9c-6.8,3.5-12.9,4.5-20.7,2.4c-31.9-8.8-64.2-16.7-96.3-24.8
	c-6.3-1.6-12.6-3.1-19.3-4.8c0.4,2.6,2,2.8,3.5,3.2c40,10.2,80,20.3,120,30.6c2.1,0.5,3.7,0.1,5.5-0.8c19.6-9.8,39.1-19.6,58.7-29.4
	c2.4-1.2,4.7-2.4,7.7-3.9C310.1,451.6,309.1,452.4,308.1,452.9z"/>
<path class="st3" d="M238.6,436.9c1.1,0.6,1.8,0.3,2.2-0.9c1.4-4.2,2.8-8.4,4.5-13.5c-7.4,2.4-13.9,4.4-20.5,7.2
	C229.6,432.3,234.1,434.6,238.6,436.9z"/>
<path class="st3" d="M339.4,437.7c-7.4,3.7-14.8,7.3-22.2,11c-0.9,0.4-2.1,0.6-2.6,2.3c6.8-3.2,13.2-6.2,19.5-9.4
	c1.1-0.6,3.7-1.8,6.7-3.2c5.1-2.5,11.1-5.5,11.2-6.4c-1.2-0.1-4.6,1.9-11.2,5.1C340.3,437.3,339.9,437.5,339.4,437.7z"/>
<path class="st4" d="M225.1,504.4c-2.3-3-4.1-6.3-6.6-9.2c-3.9-4.6-8.6-7.5-15.1-6.5c-8,1.3-16.1,2.7-24.2,3.3
	c-35.3,2.8-70.7,5.4-106.1,8.1c-2.2,0.2-4-0.3-5.9-1.4c-5.8-3.2-11.7-6.3-17.7-9.4c-1.3,4.8-1.6,9.1,0.5,13.4
	c1.5,2.9,2.4,6.1,3.6,9.1c57.7,0,115.3,0,173,0C227.6,509,226.9,506.6,225.1,504.4z"/>
<path class="st4" d="M313.8,478.9c-6.5-3.1-12.9-6.2-19.3-9.5c-1.9-1-3.4-0.5-5.1,0.3c-14.1,7.1-28.3,14.1-42.4,21.2
	c-2.3,1.2-4.5,1.5-7,0.8c-6.6-1.8-13.2-3.4-19.8-5c-1.1-0.3-2.2-0.6-3.5-0.1c1.7,1.4,3.6,2,4.8,3.7c3.1,4.6,7,8.9,9.4,13.9
	c1.8,3.6,4.4,4.5,7.7,5.5c1.7,0.5,4-0.1,5,2.2c25.1,0,50.1,0,75.2,0c-0.2-10-1.8-19.8-2.4-29.8C316.3,480.3,315.3,479.5,313.8,478.9
	z"/>
<path class="st5" d="M106.1,129.3c8.7-5.3,18.1-4.7,27.4-2.8c2.8,0.6,3.6,0.1,4.1-2.5c1.1-5.8,2.4-11.7,3.6-17.5
	c0.3-1.3,0.7-2.4,2.1-2.7c1.6-0.3,2.5,0.6,3.2,1.9c0.6,1,1.1,2.2,1.7,3.2c1.7,3.4,3.5,6.7,5.6,11c3.9-10.6,7.5-20.2,11-29.7
	c0.9-2.6,2.3-3.9,5.1-4.3c8.9-1.2,17.8-2.5,26.6-4c3.4-0.6,6.4,0.1,9.4,1.7c10.2,5.4,20.6,10.4,31.6,14c1.1,0.4,2.3,1.3,4,0.5
	c-2-2.7-3.9-5.2-5.8-7.7c-1.1-1.5-2.5-2.9-1.4-4.9c1.3-2.2,3.2-1.1,4.9-0.6c7.5,2.1,15,4.2,22.5,6.2c1.8,0.5,4,2.2,5.4,0.7
	c1.3-1.4-0.8-3.2-1.4-4.9c-1.1-3.3-0.6-4.5,2.8-5.2c2.1-0.5,4.3-0.9,6.5-1.1c2.8-0.3,3.5-1.1,1.9-3.8c-2.3-3.9-1.8-4.9,2.5-6.9
	c1.9-0.9,3.7-1.9,6.3-3.2c-5.1-2.7-9.5-5-13.9-7.3c-1.4-0.7-3-1.3-2.9-3.3c0.1-1.9,1.7-2.5,3.1-3.2c4-2,8-4.1,12.6-6.4
	c-7.9-2.5-15-4.9-22.2-6.8c-6-1.6-11.4-4.1-16-8.3c-2.9-2.6-6.2-4.1-10.1-4.4c-3.6-0.3-7.2-1.4-10.8-1.8c-5-0.6-10-2.7-15.1-1.5
	c-15.6,3.6-31.3,5.5-47.3,5.6c-6.8,0-13.1,0-17.5-6.1c-0.2-0.3-0.5-0.5-0.8-0.7c-1.4-1.1-2.1-0.9-2.2,1c-0.1,2.9-0.3,5.8-0.5,8.7
	c-0.2,3.7-1.4,4.4-4.9,3.2c-0.5-0.2-0.9-0.3-1.4-0.5c-3.1-1.3-6.1-3-9.5-3.6c0,0,0,0,0,0c-0.2,0.2-0.4,0.4-0.6,0.6
	c2.6,4.3,2.2,5.2-2.7,6.4c-2,0.5-4,1-6,1.5c-5.9,1.5-6.1,1.6-2.7,6.6c2.2,3.3,2.3,6,0.2,9.3c-2.7,4.3-4.8,9-7.2,13.5
	c-1.1,1.9-1.4,3.8-1,5.9c0.9,5.1,1.6,10.3,2.5,15.5c3.2,17.5,3.2,17.5-2.4,34.7C106.1,126.4,105,127.7,106.1,129.3z"/>
<path class="st5" d="M113.2,132.4C113.2,132.4,113.2,132.4,113.2,132.4c-0.2-0.2-0.3-0.3-0.4-0.4c-1.8,0.4-3,1.7-3.8,3.2
	c-1.6,3-3.4,3.7-5.9,1.1c-1.4,2.1-1.2,4.3-0.8,6.5c0.7,4.1,1.8,8.1,1.8,12.2c0,6.9,4.9,8.9,10.7,12c-0.9-1.5-1.7-3-2.4-4.4
	C107.7,152.2,108.4,142.4,113.2,132.4z"/>
<path class="st6" d="M137.2,168.1c0.5-1.5,1.5-2.6,3.3-2.1c1.8,0.5,1.9,1.9,1.7,3.5c-1.5,9.1-9,12.9-17,8.5c-0.5-0.3-1-0.6-1.9-1
	c-0.4,3.7-0.7,6.9-1.2,10c-0.2,1.2,0,2.1,0.6,3.1c10.9,17,20,35.3,35.2,49.4c1.3,1.2,2.5,2.1,4.3,2.4c16,2.8,32,5.6,48.1,8.5
	c2.2,0.4,3.9,0,5.8-1.1c10.8-6.3,21.7-12.5,32.6-18.6c2-1.1,3.4-2.6,4.5-4.6c7.8-13.7,12.2-28.5,14.6-44c0.3-1.8,1.3-4.1,0.5-5.3
	c-1.1-1.8-3.4-0.1-5.2-0.1c-6.2,0.3-11.9-1.3-17.4-4.3c-0.2,2.8-0.2,5.3-0.7,7.7c-2.5,14.1-13.6,18.2-25.3,15.2
	c-1.6-0.4-2.7-1.4-2.3-3.2c0.4-1.7,1.8-2.2,3.4-1.8c1.1,0.2,2.2,0.4,3.2,0.5c8.2,1.3,14.4-3.2,15.8-11.3c0.8-4.9,0.7-9.7-1.1-14.4
	c-1.7-4.4-2.1-8.9-1.6-13.6c0.5-5.2-0.5-6.9-5.3-9c-3.3-1.5-6.8-1.7-10.3-0.9c-4.8,1.1-5.6,2-5.4,6.8c0.3,9.4-4.3,15.7-12.3,19.8
	c-11,5.5-25.7,3.3-34.7-5.1c-3.2-3-5.4-6.6-6.3-10.9c-0.8-3.7-0.1-7.5-1.9-11.4c-1.2-2.4-1.8-2.7-3.9-2.7c-1.7,0-3.4-0.3-5.1-0.6
	c-0.9-0.1-1.7-0.6-2.5,0.6c-1.3,1.8-3,1.5-4.4,0.2c-4.6-4-10.3-5-15.9-6.7c-8.1-2.4-11.1,1.8-13.1,7.6c-4.1,11.9-0.1,22,8.1,30.7
	C129,175.7,134.2,178.2,137.2,168.1z M182.8,213.7c0.6-1.5,1.6-2.1,3.1-1.9c1.3,0.2,2,1.4,1.9,3c-0.4,7.5-0.4,7.5,6.7,9.9
	c1.6,0.5,2.2,1.5,1.9,3c-0.2,1.6-1.4,2.1-2.9,2.1C185.6,229.8,179.9,221.1,182.8,213.7z M121,159.8c-0.5-1.4-0.5-2.7,1-3.5
	c1.3-0.7,2.6-0.4,3.5,0.9c0.9,1.3,1.8,2.6,3.3,3.3c1.2,0.6,2.5,0.6,3.3-0.5c0.9-1.2-0.5-1.7-1-2.3c-3.5-4-6.6-8.1-6.5-13.8
	c0-2,0.5-3.8,1.6-5.5c0.9-1.3,2.2-1.6,3.5-1c1.3,0.6,1.4,1.8,1.1,3.1c-1.5,6.8,0.5,11.4,6.5,15.1c1.3,0.8,1.8,1.8,1.5,3.3
	c-0.7,3.6-4.9,7.2-8.6,7.2C126.7,166.2,122.2,163,121,159.8z"/>
<path class="st6" d="M221,441.6c0.8,0.2,1.7,0.4,2.5,0.6c6,1.6,11.8,3.7,17.6,5.9c1.5,0.6,3,1.5,5,1.1c-1.2-2.3-3.3-3.4-5.2-4.6
	c-7.9-5.4-16.6-9-25.2-12.9c-4.5-2.1-8.5-4.8-11.6-8.6c-2-2.4-1.1-6.6,1.7-7.2c3-0.7,5.9-2.2,9.2-1.6c2.4,0.4,4.8-0.2,6.1-3.5
	c-2.6,0.2-4.6,0.2-6.6-0.1c-5.7-0.9-11.3,0-16.6,1.9c-2.5,0.9-4.8,2.2-7.5,2.7c-2.6,0.5-4.7,1.7-6.4,3.8c-1.9,2.5-4.3,3.3-7.7,2.6
	c-13.1-2.7-25.6-7.5-38.5-10.8c-16.2-4.1-31.9-9.3-46.4-17.8c-2.4-1.4-3.9-3-4.5-5.7c-2.6-12.5-4.6-25.1-4.1-38
	c0.1-3-1.3-3.6-3.5-3.8c-1.3-0.1-2.7,0.2-4,0.3c-9.9,1.1-18.9,5.1-28.3,8c-4,1.2-4.6,3-4,6.7c2.8,15.4,5.9,30.8,9,46.1
	c0.8,3.9,2.6,6,6.2,7.5c16.8,6.9,33.9,12.4,51.5,16.7c19.5,4.8,39.4,7.4,59.1,11c3,0.5,5.5,1.5,7.4,4.1c3,4.3,7,7.3,11.9,9.3
	c10.3,4.3,20.9,7.7,30.5,13.6c0.8,0.5,1.9,1.6,3.3,0c-5.3-2.7-10.4-5.5-15-9.1c-1.4-1.1-2.7-2.3-1.6-4.2c1.2-2,2.9-1.2,4.5-0.4
	c3.7,1.8,7.4,3.7,11.1,5.6c4.8,2.4,9.7,4.5,14.9,5.9c0.9,0.3,2.4,0.9,2.9-0.5c0.6-1.6-0.9-1.9-2.1-2.4c-3.3-1.3-6.5-2.7-9.8-3.9
	c-4.2-1.5-7.7-4.1-11.5-6.2c-1.6-0.9-2.3-2.2-1.3-3.9c0.9-1.6,2.3-1.5,3.8-0.7c0.5,0.3,1.1,0.5,1.7,0.7c8.4,3.2,16.8,6.4,25.2,9.5
	c0.8,0.3,2,1,2.6-0.1c0.6-1.1-0.4-1.8-1.4-2.2c-2.5-1-4.6-2.6-7.2-3.5c-6.3-2.1-12.6-4.4-18.9-6.6c-1.7-0.6-2.9-1.6-2.2-3.5
	C218,441.3,219.5,441.2,221,441.6z"/>
<path class="st6" d="M265.3,97.6c-6.8-2.5-13.9-4-21.9-6.2c3,4.1,5.4,7.2,7.8,10.4c1,1.4,2.8,2.8,1.2,4.8c-1.5,1.8-3.3,0.7-5,0.1
	c-15.3-5.4-30.5-11.1-44.8-18.9c-1.6-0.9-3.2-1-4.9-0.7c-8.2,1.2-16.3,2.5-24.5,3.6c-2.2,0.3-3.3,1.2-4,3.3
	c-3.8,10.6-7.8,21.2-11.7,31.7c-0.5,1.4-0.9,3.2-2.8,3.4c-2.2,0.2-2.8-1.7-3.5-3.1c-1.9-3.6-3.7-7.2-6-11.8c-1.1,5-1.8,9-2.9,12.9
	c-0.6,2.4,0.3,3.1,2.4,3.6c4.7,1.1,9.4,2.3,14.3,2.7c2.6,0.2,4.3-0.3,5.6-2.6c1.2-2.1,3-3.3,5.7-3.2c13.2,0.2,26.5,1.1,39.7,1.8
	c3.7,0.2,5.9,2.5,5.8,6.1c0,2.3,0.5,2.6,2.6,1.9c6-2.1,12-1.6,17.6,1.5c1.8,1,2.9,1.5,4.3-0.6c1.1-1.6,3.2-1.5,5-1.5
	c7.5,0.1,15.1,0.3,22.6,0.4c1.6,0,3,0.4,3-2.2c-0.1-9.8-0.5-19.7-1.2-29.5C269.3,102.4,268.1,98.7,265.3,97.6z M205.2,106.8
	c-5.9,5.3-12,10.3-20.1,11.8c-1.1,0.2-2.2,0.3-2.8,0.4c-4.4-0.1-8-1.4-11-4.1c-1.3-1.2-2.2-2.5-0.9-4.1c1.2-1.6,2.7-1.3,4.1-0.1
	c4.5,4.1,9.5,3.6,14.5,1.3c4.8-2.2,8.9-5.5,12.7-9c1.4-1.3,3.1-3,4.9-1C208.4,104,206.8,105.5,205.2,106.8z M268,123.5
	c-0.2,2.8-2.7,2.2-4.6,2.3c-6.7-0.4-12.4-2.9-16.5-8.5c-1.1-1.5-2.1-3.3-0.1-4.8c2.1-1.5,3.2,0.1,4.3,1.7c3,4.3,7.4,6.1,12.5,6.4
	C265.6,120.7,268.2,120.4,268,123.5z"/>
<path class="st6" d="M130.9,269.4c0.6,1.3,1.3,2.3,2.4,3c13.2,8.8,26.4,17.7,40.1,26.8c3.5-7.6,6.9-15,10.3-22.4
	c0.2-0.5,0.4-1.2,0.4-1.8c0.2-7.2,0.2-14.3,0.5-21.5c0.1-2.3-1-2.9-3-3.2c-6.9-1.1-13.8-2.5-20.8-3.6c-2.6-0.4-4.4-1.5-6.2-3.3
	c-11.9-11.5-21-25.1-29.2-39.3c-0.5-0.9-0.9-2.1-2.3-2.8c-1.3,11.7-2.9,23.1-6.3,34.2c-0.4,1.3,0.2,2.4,0.7,3.5
	C121.9,249.3,126.4,259.4,130.9,269.4z"/>
<path class="st6" d="M216.5,338.5c1.7,10.4,3.5,20.9-0.5,31.2c-0.4,1,0.1,1.9,0.4,2.8c3.7,9.2,7.9,18.2,12.1,27.2
	c0.8,1.7,1.6,2,3.3,1.4c4.6-1.6,9.3-2.8,13.8-4.5c2.1-0.8,5.8,0.3,5.7-3.9c0-0.6,1-0.2,1.6,0c1.9,0.7,2.5-0.2,3-1.9
	c2.5-7.6,5-15.2,7.6-22.8c1.4-4.3,2.9-8.7,4.3-13c-0.2-0.1-0.4-0.2-0.6-0.3c-3.5,4-6.7,8.3-10.6,11.9c-6.5,5.9-9.9,13-10.1,21.7
	c0,0.5-0.1,1-0.1,1.5c-0.1,1.9-1.2,3-3.1,2.7c-1.8-0.3-2.3-1.6-2-3.3c0.7-4.8,1.4-9.6,2.2-14.4c0.1-0.8,0.5-1.8,1.1-2.2
	c3.7-2.8,3.7-6.4,2.6-10.4c-0.7-2.7-1-5.5-1.6-8.2c-2.3-10.7-5.1-21.4-9.9-31.5c-5.4,4.2-11.1,7.3-16.7,10.7
	C216.9,334.4,216,335.8,216.5,338.5z"/>
<path class="st6" d="M287,305.8c-0.9,1.5-1,2.8-0.3,4.4c1.7,3.9,3.6,7.7,4.4,11.9c0.2,1.2,0.1,3.4,1.4,3.3c1.9-0.1,4.2,0.1,5.5-2.1
	c0.5-0.9,1.3-1.8,1.6-2.8c1.9-6.5,7.2-7.9,12.9-8.6c4.8-0.6,9.6,2.9,9.5,7.1c1.3-0.2,3.7-0.6,3.5-1.1c-1-3.2,1-6.9-1.2-9.8
	c-1.4-1.9-2.6-3.9-3.1-6.1c-0.5-2.3-1.5-2.4-3.5-2.1c-6.3,1.1-12.5,1.3-18.6-1c-5.1-1.9-7-6.7-10.1-10.5c-0.2-0.3-0.2-1,0.1-1.4
	c1-1.6,0-2.6-0.8-3.9c-1.9-3-4.9-4.5-7.8-6.4c-2.4-1.5-3.9-1.2-5.3,1.4c3.8,2.6,6.6,6.3,9.7,9.7C289.2,292.3,290.1,300.4,287,305.8z
	"/>
<path class="st6" d="M268.5,142.4c-3.8,0.1-7.5,0-11.3,0c0-0.1,0-0.2,0-0.4c-2.4,0-4.9,0-7.3,0c-6.5,0-6.5,0-7.2,6.6
	c-0.1,1.1-0.4,2.2-0.4,3.2c-0.1,3.1-0.7,6.3,0.7,9.3c4.2,9.3,16.2,12.2,25,9.6c1.5-0.5,1.6-1.7,1.7-2.9c0.6-7.7,1.1-15.5,1.1-23.3
	C270.8,142.9,270.2,142.3,268.5,142.4z M262.7,169c-0.8,0.6-1.7,0.4-2.3-0.4c-1.9-2.5-1.4-5.3-0.6-8c0.5-1.8,1.3-4.1,3.8-3.6
	c2.3,0.5,1.8,2.8,2.2,4.5C265.6,164.4,265.4,167.2,262.7,169z"/>
<path class="st6" d="M304.6,323c4.9-1.1,9.6-2.1,14.5-3.2C311.6,315.5,307,316.5,304.6,323z"/>
<path class="st6" d="M342.6,311.2c3.8-2.5,5.6-6.4,8-9.9c0.5-0.7,1.9-1.5,0.6-2.4c-1.1-0.7-1.6,0.8-2.1,1.4c-3.2,4-6,8.3-9.6,12
	C340.9,313,341.6,311.8,342.6,311.2z"/>
<path class="st6" d="M343.8,298.7c0.1-0.3,1.8-1.9,1.8-2.2c-0.8,0-5.8,0.8-10,1.4c-0.3,0-0.6,0.1-0.9,0.1c-2.6,0.4-4.7,0.7-5.2,0.7
	c-4.1,0.2-4.1,0.2-2.2,4.6C327.8,299.2,341.2,298.9,343.8,298.7z"/>
<path class="st6" d="M362.2,296.4c-0.5-2.5-5.9-2.5-7.7-1.4c0,0,0.9,0,2.5,1.5C359.4,296.4,360.3,296.7,362.2,296.4z"/>
<path class="st6" d="M197.8,164.7c0.2,0.4,0.6,0.3,0.9,0.1c8.7-3.1,12.2-8.1,12.2-17.2c0-1.3,0-2.7,0-4c-0.1-8.7-0.1-8.8-9-9.4
	c-9.6-0.6-19.1-1-28.7-1.4c-1.3-0.1-2.8-0.6-3.9,0.3c-1.6,1.4-0.9,4.4-3.4,5.2c0.2,0.2,0.4,0.5,0.6,0.7c1.8,1.2,1.2,3,1.2,4.6
	c0.1,3.8-0.8,7.7,1.3,11.4c4.8,8.3,15.3,11.6,22.7,11.2c1.5-0.1,2.1-0.5,1.5-2.2c-0.9-2.9-0.4-5.8,1.1-8.4c0.6-1.1,1.5-1.9,2.9-1.7
	c1.3,0.3,1.6,1.3,1.9,2.4c0.7,2.7-0.2,5.3-0.9,7.8C198.1,164.4,197.8,164.6,197.8,164.7z"/>
<path class="st7" d="M106.5,280.6c0.5,1.9,0.9,3.7,0.7,5.7c-3,20.3-5.9,40.6-8.8,61c-0.8,6-2.1,6.8-7.5,4.1
	c-2.9-1.5-3.2-0.4-3.1,2.1c0.2,10.9,1.8,21.5,4.1,32.1c0.4,1.9,1.3,3.2,3.6,2.8c-0.1,0.9,0.5,1.2,1.1,1.4c0.2,0.1,0.4,0.1,0.6,0.2
	c4.3,2.2,8.6,4.6,13.1,6.3c20.6,8,42.2,13.1,63.4,19.2c3.2,0.9,6,1.5,8.2-1.9c0.7-1,2.1-2,3.3-2.2c6.9-1.3,12.7-6.1,20.1-5.8
	c2.7,0.1,6-0.2,8-2.5c2.5-3,3.8-6.2,1.3-10.2c-1.6-2.5-2.3-5.6-3.7-8.3c-0.4-0.9-0.8-1.7-1.1-2.6c-0.9-2.6-1-5.2-0.1-8c0,0,0,0,0,0
	c0-0.3,0.1-0.6,0.1-1c-0.2,0.1-0.5,0.3-0.7,0.4c-3.8,3.7-6.9,8-10,12.4c1.7,1,3,0.2,4.2,0.2c1,0,2.2-0.2,2.3,1.1
	c0.1,1.1-0.8,1.7-1.9,1.8c-1.9,0.2-3.9,0.5-5.8,0.4c-3.6-0.1-4.1-1.2-2.1-4.2c3.8-5.6,8.1-11,12.8-15.9c4.4-4.5,5.1-10,4.7-15.8
	c-0.5-6.9-2.8-13.7-2.1-20.6c1.1-12,2.7-23.9,4.7-35.8c1.5-8.9,1.5-17.3-2.9-25.4c-0.7-1.3-0.8-3.1-1.8-3.9
	c-5.6-4.9-11.2-9.7-17.1-14.3c-2-1.6-3.8-0.4-4.1,2.2c-0.1,1.3-0.3,2.7-0.2,4c0.3,10.4-0.5,20.6-6.1,29.8c-2.3,3.8-3.8,8.1-5.7,12.2
	c-2,4.3-3.1,4.6-7.1,1.9c-13.4-9-26.9-18-40.3-26.9c-1.9-1.3-3.2-2.8-4.2-4.9c-2.7-6.2-5.5-12.4-8.3-18.6c-3.5-7.8-7-15.6-11.1-24.6
	c-1.2,5.5-5.2,6.2-8.6,7.6c-6.3,2.8-12.8,5.4-19.1,8.1c-1,0.4-2.4,0.4-3,2c2.8,2,5.4,4.3,8.4,5.8
	C96.4,258.3,103.3,267.9,106.5,280.6z M109.8,347.8c0.9,0.3,1.1,1.3,0.9,2.2c-2.8,9.9-3.3,20.4-7.6,29.9c-1.1,2.4-2.5,4.7-4,6.9
	c-1,1.4-2.1,1.9-3.6,1.6c0.1-0.8,0-1.8,0.4-2.4c6.5-8.1,7.7-18.1,9.7-27.8c0.6-3,1.4-5.9,2.1-8.8C108,348.3,108.7,347.5,109.8,347.8
	z"/>
<path class="st8" d="M118.8,460.8c-6-1.5-7.8-5.8-8.6-10.9c-0.8-5-0.5-9.9,5.8-12.3c-1.7-0.4-2.8-0.7-3.9-1
	C92.4,431.9,73.2,426,54.6,418c-4-1.7-6.9-3.9-7.3-8.6c-0.1-0.7,0.2-1.9-1.4-1.7c-0.1,0.6-0.3,1.2-0.2,1.8
	c1.1,8.6,1.2,17.2,1.4,25.8c0.1,3.2,1,5.8,3,8.3c4.5,5.4,8.8,11.1,13.1,16.6c0.5,0.7,1.1,1.3,1.5,2c0.4,0.7,0.3,1.5-0.3,2
	c-0.6,0.4-1.4,0.3-2-0.3c-0.6-0.6-1.1-1.3-1.6-1.9c-4.7-5.9-9.4-11.8-14.1-17.7c-0.3,0.4-0.6,0.6-0.7,0.9c-2.7,10-5.4,19.9-8.2,29.9
	c-0.5,1.8,0.5,2.4,1.7,3c10.1,5.4,20.1,10.7,30.2,16.1c1.1,0.6,2.2,0.8,3.5,0.7c3.6-0.3,7.3-0.6,10.9-0.9
	c24.8-1.9,49.7-3.8,74.5-5.5c15.5-1.1,30.9-2.9,47.1-5.4c-1.9-0.5-3-0.9-4.2-1.2C174.1,474.9,146.4,467.7,118.8,460.8z"/>
<path class="st7" d="M90.9,345.5c0.5,0.4,1.3,0.6,2.1,1.1c0.3-1.5,0.6-2.8,0.8-4.1c2-14.2,3.5-28.5,6.3-42.5
	c2-10.5,1.9-20.3-3.3-29.9c-1.3-2.4-2.4-4.6-4.8-6.1c-5.4-3.6-10.8-7.1-15.8-11.2c-3.7-3-7.2-3.8-11.5-1.6c-2.1,1.1-4.6,1.7-6.9,2.3
	c-1.9,0.5-3,1.6-3.7,3.5c-3.9,11-7.9,22-12.1,32.8c-2.5,6.4-4,12.9-4.5,19.8c-0.4,4.7-1.2,9.4-1.7,14.1c-1.1,8.7-2.1,17.4-3.2,26
	c-0.4,2.8,0.4,3.6,3.1,2.4c1.3-0.6,2.8-0.9,4.2-1.3c8.8-2.8,17.3-6.4,26.3-8.7C74.9,339.9,83.4,339.1,90.9,345.5z"/>
<path class="st9" d="M230.1,320.2c6.3-4.6,6.4-5.8,2.7-12.5c-3.4-6.2-6.8-12.4-10.7-19.5c-0.9,6.5-1.8,11.9-2.3,17.4
	c-0.1,0.9-0.2,1.9-0.3,2.8c-0.8,6.5-2.2,12.9-2,19.5C221.9,325.8,226.1,323.1,230.1,320.2z"/>
<path class="st9" d="M217.4,327.9C217.4,327.9,217.4,327.9,217.4,327.9C217.4,327.8,217.4,327.9,217.4,327.9
	C217.4,327.9,217.4,327.9,217.4,327.9c-0.1,0-0.2,0-0.3,0.1C217.2,328,217.3,328,217.4,327.9L217.4,327.9z"/>
<path class="st6" d="M356.1,301.6c-0.1,0.3-1.5,2.1-1.6,2.4c1.9-0.3,7.6-1.5,9.5-1.8C365.5,298.7,357.9,300.6,356.1,301.6z"/>
<path class="st6" d="M329.6,305.6c-0.1,0.3,0.6,2.4,0.5,2.7c1.9-0.3,5.3-0.9,7.3-1.2C343.4,301.4,332.6,305.2,329.6,305.6z"/>
<path class="st6" d="M330.5,316C330.3,316.1,330.3,316.1,330.5,316L330.5,316z"/>
<path class="st6" d="M331.3,315.9C331.5,315.9,331.5,315.9,331.3,315.9L331.3,315.9z"/>
<path class="st6" d="M330.4,313.3c-0.1,0.3,0.6,2.4,0.5,2.7C335.1,311.6,333.4,312.9,330.4,313.3z"/>
<path class="st6" d="M330.6,316C330.5,316,330.5,316,330.6,316C330.5,316,330.5,316,330.6,316z"/>
<path class="st6" d="M330.9,316c-0.1,0-0.2,0-0.3,0C330.7,316,330.8,316,330.9,316z"/>
<path class="st6" d="M331.3,315.9c-0.1,0-0.3,0-0.4,0.1C331.1,316,331.2,316,331.3,315.9z"/>
</svg>
